<?xml version="1.0" standalone="no"?>
<!DOCTYPE svg PUBLIC "-//W3C//DTD SVG 20010904//EN"
 "http://www.w3.org/TR/2001/REC-SVG-20010904/DTD/svg10.dtd">
<svg version="1.0" xmlns="http://www.w3.org/2000/svg"
 width="1024.000000pt" height="1024.000000pt" viewBox="0 0 1024.000000 1024.000000"
 preserveAspectRatio="xMidYMid meet">
<metadata>
Created by potrace 1.14, written by Peter Selinger 2001-2017
</metadata>
<g transform="translate(0.000000,1024.000000) scale(0.100000,-0.100000)"
fill="#000000" stroke="none">
<path d="M4830 10233 c-403 -42 -609 -75 -885 -143 -355 -87 -679 -207 -1040
-385 -535 -263 -948 -557 -1350 -959 -466 -466 -813 -947 -1076 -1491 -172
-357 -324 -798 -373 -1085 -98 -576 -106 -664 -106 -1100 0 -504 33 -764 157
-1255 92 -365 197 -653 349 -957 116 -233 184 -349 329 -568 190 -285 380
-515 640 -775 405 -405 783 -675 1345 -959 545 -276 1132 -449 1810 -532 181
-22 687 -31 847 -15 389 40 880 138 1231 247 504 156 1080 454 1527 789 341
256 703 623 992 1005 345 457 558 865 742 1420 193 580 308 1418 257 1867 -9
78 -16 175 -16 215 0 225 -102 706 -235 1104 -91 275 -153 429 -264 659 -315
652 -775 1235 -1366 1730 -376 315 -922 641 -1375 818 -531 209 -926 300
-1534 357 -199 18 -495 25 -606 13z m583 -3572 c299 -64 535 -189 732 -386
197 -196 322 -430 388 -723 18 -83 21 -128 21 -312 0 -239 -14 -332 -75 -507
-124 -350 -380 -638 -705 -793 -328 -157 -723 -194 -1060 -100 -501 141 -879
559 -995 1102 -30 137 -36 372 -15 518 89 606 567 1099 1181 1216 107 20 403
12 528 -15z"/>
</g>
</svg>
